<svg width="22" height="21" viewBox="0 0 22 21" fill="none" xmlns="http://www.w3.org/2000/svg">
<path d="M14.8145 7.13672L14.3633 6.68555C14.2402 6.5625 14.0352 6.5625 13.9121 6.68555L7.14453 13.4531C7.02148 13.5762 7.02148 13.7812 7.14453 13.9043L7.5957 14.3555C7.71875 14.4785 7.92383 14.4785 8.04688 14.3555L14.8145 7.58789C14.9375 7.46484 14.9375 7.25977 14.8145 7.13672ZM10.3438 7.875C10.3438 6.80859 9.44141 5.90625 8.375 5.90625C7.26758 5.90625 6.40625 6.80859 6.40625 7.875C6.40625 8.98242 7.26758 9.84375 8.375 9.84375C9.44141 9.84375 10.3438 8.98242 10.3438 7.875ZM7.71875 7.875C7.71875 7.54688 8.00586 7.21875 8.375 7.21875C8.70312 7.21875 9.03125 7.54688 9.03125 7.875C9.03125 8.24414 8.70312 8.53125 8.375 8.53125C8.00586 8.53125 7.71875 8.24414 7.71875 7.875ZM13.625 11.1562C12.5176 11.1562 11.6562 12.0586 11.6562 13.125C11.6562 14.2324 12.5176 15.0938 13.625 15.0938C14.6914 15.0938 15.5938 14.2324 15.5938 13.125C15.5938 12.0586 14.6914 11.1562 13.625 11.1562ZM13.625 13.7812C13.2559 13.7812 12.9688 13.4941 12.9688 13.125C12.9688 12.7969 13.2559 12.4688 13.625 12.4688C13.9531 12.4688 14.2812 12.7969 14.2812 13.125C14.2812 13.4941 13.9531 13.7812 13.625 13.7812ZM21.5 10.5C21.5 9.06445 20.6797 7.71094 19.4492 7.01367C19.8184 5.61914 19.4492 4.14258 18.4238 3.07617C17.3574 2.05078 15.8809 1.68164 14.4863 2.05078C13.7891 0.820312 12.4355 0 11 0C9.52344 0 8.16992 0.820312 7.47266 2.05078C6.07812 1.68164 4.60156 2.05078 3.57617 3.07617C2.50977 4.14258 2.14062 5.61914 2.50977 7.01367C1.2793 7.71094 0.5 9.06445 0.5 10.5C0.5 11.9766 1.2793 13.3301 2.50977 14.0273C2.14062 15.4219 2.50977 16.8984 3.57617 17.9238C4.64258 19.0312 6.16016 19.3594 7.47266 18.9902C8.16992 20.2207 9.52344 21 11 21C12.4355 21 13.7891 20.2207 14.4863 18.9902C15.8398 19.3594 17.3164 19.0312 18.4238 17.9238C19.4492 16.8984 19.8184 15.4219 19.4492 14.0273C20.6797 13.3301 21.5 11.9766 21.5 10.5ZM17.7266 13.3301C17.9727 13.8223 18.957 15.5449 17.4805 17.0215C16.291 18.2109 15.1016 17.8828 13.7891 17.2676C13.584 17.7598 13.0918 19.6875 11 19.6875C8.82617 19.6875 8.33398 17.6777 8.16992 17.2676C6.85742 17.8828 5.66797 18.2109 4.47852 17.0215C2.96094 15.5039 4.02734 13.6992 4.23242 13.3301C3.74023 13.125 1.8125 12.5918 1.8125 10.5C1.8125 8.36719 3.82227 7.875 4.23242 7.71094C3.98633 7.21875 3.00195 5.49609 4.47852 4.01953C5.99609 2.50195 7.80078 3.56836 8.16992 3.77344C8.375 3.24023 8.9082 1.3125 11 1.3125C13.1328 1.3125 13.625 3.36328 13.7891 3.77344C14.2812 3.52734 16.0039 2.54297 17.4805 4.01953C18.998 5.53711 17.9316 7.3418 17.7266 7.71094C18.2598 7.91602 20.1875 8.4082 20.1875 10.5C20.1875 12.6738 18.1367 13.166 17.7266 13.3301Z" fill="#555555"/>
</svg>
